<mxfile host="Electron" agent="Mozilla/5.0 (Windows NT 10.0; Win64; x64) AppleWebKit/537.36 (KHTML, like Gecko) draw.io/26.1.1 Chrome/132.0.6834.210 Electron/34.3.3 Safari/537.36" version="26.1.1">
  <diagram name="第 1 页" id="2NLKaKdNGWA2YZJr7rei">
    <mxGraphModel dx="1890" dy="505" grid="1" gridSize="10" guides="1" tooltips="1" connect="1" arrows="1" fold="1" page="1" pageScale="1" pageWidth="827" pageHeight="1169" math="0" shadow="0">
      <root>
        <mxCell id="0" />
        <mxCell id="1" parent="0" />
        <mxCell id="mNG-GWQJ5fGpKC8jDQhr-12" style="edgeStyle=orthogonalEdgeStyle;rounded=0;orthogonalLoop=1;jettySize=auto;html=1;exitX=1;exitY=0.5;exitDx=0;exitDy=0;entryX=0;entryY=0.5;entryDx=0;entryDy=0;" edge="1" parent="1" source="mNG-GWQJ5fGpKC8jDQhr-1" target="mNG-GWQJ5fGpKC8jDQhr-2">
          <mxGeometry relative="1" as="geometry" />
        </mxCell>
        <mxCell id="mNG-GWQJ5fGpKC8jDQhr-1" value="用户上传文件" style="rounded=0;whiteSpace=wrap;html=1;" vertex="1" parent="1">
          <mxGeometry x="-70" y="160" width="120" height="60" as="geometry" />
        </mxCell>
        <mxCell id="mNG-GWQJ5fGpKC8jDQhr-13" style="edgeStyle=orthogonalEdgeStyle;rounded=0;orthogonalLoop=1;jettySize=auto;html=1;exitX=1;exitY=0.5;exitDx=0;exitDy=0;entryX=0;entryY=0.5;entryDx=0;entryDy=0;" edge="1" parent="1" source="mNG-GWQJ5fGpKC8jDQhr-2" target="mNG-GWQJ5fGpKC8jDQhr-3">
          <mxGeometry relative="1" as="geometry" />
        </mxCell>
        <mxCell id="mNG-GWQJ5fGpKC8jDQhr-2" value="后端接受文件" style="rounded=0;whiteSpace=wrap;html=1;" vertex="1" parent="1">
          <mxGeometry x="110" y="160" width="120" height="60" as="geometry" />
        </mxCell>
        <mxCell id="mNG-GWQJ5fGpKC8jDQhr-14" style="edgeStyle=orthogonalEdgeStyle;rounded=0;orthogonalLoop=1;jettySize=auto;html=1;exitX=1;exitY=0.5;exitDx=0;exitDy=0;entryX=0;entryY=0.5;entryDx=0;entryDy=0;" edge="1" parent="1" source="mNG-GWQJ5fGpKC8jDQhr-3" target="mNG-GWQJ5fGpKC8jDQhr-4">
          <mxGeometry relative="1" as="geometry" />
        </mxCell>
        <mxCell id="mNG-GWQJ5fGpKC8jDQhr-3" value="保存文件到服务器" style="rounded=0;whiteSpace=wrap;html=1;" vertex="1" parent="1">
          <mxGeometry x="280" y="160" width="120" height="60" as="geometry" />
        </mxCell>
        <mxCell id="mNG-GWQJ5fGpKC8jDQhr-15" style="edgeStyle=orthogonalEdgeStyle;rounded=0;orthogonalLoop=1;jettySize=auto;html=1;exitX=1;exitY=0.5;exitDx=0;exitDy=0;entryX=0;entryY=0.5;entryDx=0;entryDy=0;" edge="1" parent="1" source="mNG-GWQJ5fGpKC8jDQhr-4" target="mNG-GWQJ5fGpKC8jDQhr-5">
          <mxGeometry relative="1" as="geometry" />
        </mxCell>
        <mxCell id="mNG-GWQJ5fGpKC8jDQhr-4" value="更新数据库" style="rounded=0;whiteSpace=wrap;html=1;" vertex="1" parent="1">
          <mxGeometry x="440" y="160" width="120" height="60" as="geometry" />
        </mxCell>
        <mxCell id="mNG-GWQJ5fGpKC8jDQhr-16" value="" style="edgeStyle=orthogonalEdgeStyle;rounded=0;orthogonalLoop=1;jettySize=auto;html=1;" edge="1" parent="1" source="mNG-GWQJ5fGpKC8jDQhr-5" target="mNG-GWQJ5fGpKC8jDQhr-8">
          <mxGeometry relative="1" as="geometry" />
        </mxCell>
        <mxCell id="mNG-GWQJ5fGpKC8jDQhr-5" value="用户触发训练&lt;span style=&quot;color: rgba(0, 0, 0, 0); font-family: monospace; font-size: 0px; text-align: start; text-wrap-mode: nowrap;&quot;&gt;%3CmxGraphModel%3E%3Croot%3E%3CmxCell%20id%3D%220%22%2F%3E%3CmxCell%20id%3D%221%22%20parent%3D%220%22%2F%3E%3CmxCell%20id%3D%222%22%20value%3D%22%E4%BF%9D%E5%AD%98%E6%96%87%E4%BB%B6%E5%88%B0%E6%9C%8D%E5%8A%A1%E5%99%A8%22%20style%3D%22rounded%3D0%3BwhiteSpace%3Dwrap%3Bhtml%3D1%3B%22%20vertex%3D%221%22%20parent%3D%221%22%3E%3CmxGeometry%20x%3D%22280%22%20y%3D%22160%22%20width%3D%22120%22%20height%3D%2260%22%20as%3D%22geometry%22%2F%3E%3C%2FmxCell%3E%3C%2Froot%3E%3C%2FmxGraphModel%3E&lt;/span&gt;&lt;span style=&quot;color: rgba(0, 0, 0, 0); font-family: monospace; font-size: 0px; text-align: start; text-wrap-mode: nowrap;&quot;&gt;%3CmxGraphModel%3E%3Croot%3E%3CmxCell%20id%3D%220%22%2F%3E%3CmxCell%20id%3D%221%22%20parent%3D%220%22%2F%3E%3CmxCell%20id%3D%222%22%20value%3D%22%E4%BF%9D%E5%AD%98%E6%96%87%E4%BB%B6%E5%88%B0%E6%9C%8D%E5%8A%A1%E5%99%A8%22%20style%3D%22rounded%3D0%3BwhiteSpace%3Dwrap%3Bhtml%3D1%3B%22%20vertex%3D%221%22%20parent%3D%221%22%3E%3CmxGeometry%20x%3D%22280%22%20y%3D%22160%22%20width%3D%22120%22%20height%3D%2260%22%20as%3D%22geometry%22%2F%3E%3C%2FmxCell%3E%3C%2Froot%3E%3C%2FmxGraphModel%3E&lt;/span&gt;" style="rounded=0;whiteSpace=wrap;html=1;" vertex="1" parent="1">
          <mxGeometry x="600" y="160" width="120" height="60" as="geometry" />
        </mxCell>
        <mxCell id="mNG-GWQJ5fGpKC8jDQhr-20" value="" style="edgeStyle=orthogonalEdgeStyle;rounded=0;orthogonalLoop=1;jettySize=auto;html=1;" edge="1" parent="1" source="mNG-GWQJ5fGpKC8jDQhr-6" target="mNG-GWQJ5fGpKC8jDQhr-9">
          <mxGeometry relative="1" as="geometry" />
        </mxCell>
        <mxCell id="mNG-GWQJ5fGpKC8jDQhr-6" value="用户触发评估" style="rounded=0;whiteSpace=wrap;html=1;" vertex="1" parent="1">
          <mxGeometry x="280" y="300" width="120" height="60" as="geometry" />
        </mxCell>
        <mxCell id="mNG-GWQJ5fGpKC8jDQhr-19" value="" style="edgeStyle=orthogonalEdgeStyle;rounded=0;orthogonalLoop=1;jettySize=auto;html=1;" edge="1" parent="1" source="mNG-GWQJ5fGpKC8jDQhr-7" target="mNG-GWQJ5fGpKC8jDQhr-6">
          <mxGeometry relative="1" as="geometry" />
        </mxCell>
        <mxCell id="mNG-GWQJ5fGpKC8jDQhr-7" value="训练完成" style="rounded=0;whiteSpace=wrap;html=1;" vertex="1" parent="1">
          <mxGeometry x="440" y="300" width="120" height="60" as="geometry" />
        </mxCell>
        <mxCell id="mNG-GWQJ5fGpKC8jDQhr-17" value="" style="edgeStyle=orthogonalEdgeStyle;rounded=0;orthogonalLoop=1;jettySize=auto;html=1;" edge="1" parent="1" source="mNG-GWQJ5fGpKC8jDQhr-8" target="mNG-GWQJ5fGpKC8jDQhr-7">
          <mxGeometry relative="1" as="geometry" />
        </mxCell>
        <mxCell id="mNG-GWQJ5fGpKC8jDQhr-8" value="后端调用模型训练" style="rounded=0;whiteSpace=wrap;html=1;" vertex="1" parent="1">
          <mxGeometry x="600" y="300" width="120" height="60" as="geometry" />
        </mxCell>
        <mxCell id="mNG-GWQJ5fGpKC8jDQhr-21" value="" style="edgeStyle=orthogonalEdgeStyle;rounded=0;orthogonalLoop=1;jettySize=auto;html=1;" edge="1" parent="1" source="mNG-GWQJ5fGpKC8jDQhr-9" target="mNG-GWQJ5fGpKC8jDQhr-10">
          <mxGeometry relative="1" as="geometry" />
        </mxCell>
        <mxCell id="mNG-GWQJ5fGpKC8jDQhr-9" value="后端调用评估逻辑" style="rounded=0;whiteSpace=wrap;html=1;" vertex="1" parent="1">
          <mxGeometry x="110" y="300" width="120" height="60" as="geometry" />
        </mxCell>
        <mxCell id="mNG-GWQJ5fGpKC8jDQhr-10" value="评估完成" style="rounded=0;whiteSpace=wrap;html=1;" vertex="1" parent="1">
          <mxGeometry x="-70" y="300" width="120" height="60" as="geometry" />
        </mxCell>
      </root>
    </mxGraphModel>
  </diagram>
</mxfile>
